<svg enable-background="new 0 0 32 32" height="512" viewBox="0 0 32 32" width="512" xmlns="http://www.w3.org/2000/svg"><path d="m26 32h-20c-3.314 0-6-2.686-6-6v-20c0-3.314 2.686-6 6-6h20c3.314 0 6 2.686 6 6v20c0 3.314-2.686 6-6 6z" fill="#ffe6e2"/><path d="m26 32h-20c-3.314 0-6-2.686-6-6v-20c0-3.314 2.686-6 6-6h20c3.314 0 6 2.686 6 6v20c0 3.314-2.686 6-6 6z" fill="#ffe6e2"/><path d="m23.678 13.472c-.351-.367-.892-.46-1.348-.235l-.82.408-.121-.917c-.355-2.695-2.672-4.727-5.39-4.727s-5.035 2.032-5.39 4.727l-.121.918-.82-.408c-.455-.228-.997-.133-1.348.234-.356.373-.424.906-.173 1.356l1.766 3.177-.57 4.324c-.058.43.128.851.484 1.099.355.248.815.275 1.198.071l1.353-.719c.228-.121.503-.126.736-.009l2.076 1.038c.253.126.53.189.807.189s.554-.063.807-.189l2.076-1.038c.233-.116.508-.113.737.009l1.352.719c.383.203.843.177 1.198-.071.356-.248.542-.669.485-1.098l-.57-4.326 1.766-3.176c.254-.451.187-.983-.17-1.356zm-9.678-.466c.552 0 1 .449 1 1s-.448 1-1 1-1-.449-1-1 .448-1 1-1zm5.333 4.661c0 .919-.748 1.667-1.667 1.667s-1.667-.747-1.667-1.667h-2.833c-.276 0-.5-.224-.5-.5s.224-.5.5-.5h3.334 2.333c.276 0 .5.224.5.5zm-1.333-2.661c-.552 0-1-.449-1-1s.448-1 1-1 1 .449 1 1c0 .552-.448 1-1 1z" fill="#fc573b"/></svg>